<svg width="67" height="71" viewBox="0 0 67 71" fill="none" xmlns="http://www.w3.org/2000/svg">
<path d="M62.5 2H4.5C3.39543 2 2.5 2.89543 2.5 4V15.5C2.5 16.6046 3.39543 17.5 4.5 17.5H62.5C63.6046 17.5 64.5 16.6046 64.5 15.5V4C64.5 2.89543 63.6046 2 62.5 2Z" stroke="black" stroke-width="4"/>
<path d="M2.5 65.5V29C2.5 27.8954 3.39543 27 4.5 27H58C57.5294 29.0663 57.1477 30.3297 56 33C54.9661 34.6221 54.1521 35.6282 52.5 37.5C51.0291 39.0291 49.9165 39.7234 48 41C46.3067 42.2118 44.7261 42.7418 41 43.5H19.5V52.5H62.5C63.6046 52.5 64.5 53.3954 64.5 54.5V66.5C64.5 67.6046 63.6046 68.5 62.5 68.5H5.5C3.84315 68.5 2.5 67.1569 2.5 65.5Z" stroke="black" stroke-width="4"/>
</svg>
